<svg width="2584" height="870" viewBox="0 0 2584 870" fill="none" xmlns="http://www.w3.org/2000/svg">
<path d="M24.3608 468.199V430.912C52.3674 430.912 71.9224 425.195 83.0256 413.76C94.1288 402.16 99.6804 383.019 99.6804 356.338V284.996C99.6804 259.641 102.498 238.346 108.132 221.111C113.932 203.71 122.715 189.79 134.482 179.349C146.248 168.909 161.162 161.369 179.226 156.729C197.289 152.089 218.584 149.768 243.111 149.768V208.682C223.887 208.682 208.89 211.499 198.118 217.134C187.346 222.768 179.806 231.551 175.497 243.483C171.354 255.249 169.283 270.33 169.283 288.724V379.207C169.283 391.968 167.377 403.817 163.565 414.754C159.754 425.526 152.711 434.889 142.436 442.844C132.161 450.798 117.495 457.013 98.4375 461.487C79.3797 465.962 54.6875 468.199 24.3608 468.199ZM243.111 783.895C218.584 783.895 197.289 781.575 179.226 776.935C161.162 772.295 146.248 764.754 134.482 754.314C122.715 743.874 113.932 729.953 108.132 712.553C102.498 695.318 99.6804 674.023 99.6804 648.668V577.077C99.6804 550.562 94.1288 531.504 83.0256 519.903C71.9224 508.303 52.3674 502.503 24.3608 502.503V465.464C54.6875 465.464 79.3797 467.702 98.4375 472.176C117.495 476.485 132.161 482.699 142.436 490.82C152.711 498.774 159.754 508.22 163.565 519.158C167.377 529.929 169.283 541.696 169.283 554.456V644.939C169.283 663.168 171.354 678.166 175.497 689.932C179.806 701.864 187.346 710.647 198.118 716.281C208.89 722.081 223.887 724.982 243.111 724.982V783.895ZM24.3608 502.503V430.912H93.2173V502.503H24.3608ZM2542.47 465.464V502.503C2514.46 502.503 2494.91 508.303 2483.81 519.903C2472.7 531.504 2467.15 550.562 2467.15 577.077V648.668C2467.15 674.023 2464.25 695.318 2458.45 712.553C2452.82 729.953 2444.12 743.874 2432.35 754.314C2420.58 764.754 2405.67 772.295 2387.61 776.935C2369.54 781.575 2348.25 783.895 2323.72 783.895V724.982C2342.95 724.982 2357.94 722.081 2368.71 716.281C2379.49 710.647 2386.94 701.864 2391.09 689.932C2395.4 678.166 2397.55 663.168 2397.55 644.939V554.456C2397.55 541.696 2399.46 529.929 2403.27 519.158C2407.08 508.22 2414.12 498.774 2424.4 490.82C2434.67 482.699 2449.34 476.485 2468.39 472.176C2487.45 467.702 2512.14 465.464 2542.47 465.464ZM2323.72 149.768C2348.25 149.768 2369.54 152.089 2387.61 156.729C2405.67 161.369 2420.58 168.909 2432.35 179.349C2444.12 189.79 2452.82 203.71 2458.45 221.111C2464.25 238.346 2467.15 259.641 2467.15 284.996V356.338C2467.15 383.019 2472.7 402.16 2483.81 413.76C2494.91 425.195 2514.46 430.912 2542.47 430.912V468.199C2512.14 468.199 2487.45 465.962 2468.39 461.487C2449.34 457.013 2434.67 450.798 2424.4 442.844C2414.12 434.889 2407.08 425.526 2403.27 414.754C2399.46 403.817 2397.55 391.968 2397.55 379.207V288.724C2397.55 270.33 2395.4 255.249 2391.09 243.483C2386.94 231.551 2379.49 222.768 2368.71 217.134C2357.94 211.499 2342.95 208.682 2323.72 208.682V149.768ZM2542.47 430.912V502.503H2473.62V430.912H2542.47Z" fill="black"/>
<rect x="492.985" y="241" width="54.484" height="140.948" rx="27.242" fill="#FF9900"/>
<rect x="492.985" y="435.248" width="54.484" height="243.994" rx="27.242" fill="black"/>
<rect x="661.347" y="288.377" width="54.484" height="140.948" rx="27.242" transform="rotate(45 661.347 288.377)" fill="#E7404A"/>
<rect x="520.4" y="423.403" width="54.484" height="190.325" rx="27.242" transform="rotate(45 520.4 423.403)" fill="black"/>
<rect width="54.484" height="190.325" rx="27.242" transform="matrix(-0.707107 0.707107 0.707107 0.707107 519.667 423.403)" fill="black"/>
<rect width="54.484" height="140.948" rx="27.242" transform="matrix(-0.707107 0.707107 0.707107 0.707107 378.719 287.193)" fill="#29B874"/>
<rect width="54.484" height="140.948" rx="27.242" transform="matrix(1.39071e-07 1 1 -1.39071e-07 294 439.985)" fill="#4468FD"/>
<rect width="54.484" height="140.948" rx="27.242" transform="matrix(1.39071e-07 1 1 -1.39071e-07 605.506 439.985)" fill="#32A6C3"/>
<path d="M948.954 478.283C939.215 478.283 930.592 475.365 923.085 469.528C915.578 463.491 910.709 455.843 908.477 446.585L882.913 341.226C882.304 337.604 882 335.591 882 335.189C882 327.943 884.536 321.805 889.608 316.774C894.884 311.541 901.173 308.925 908.477 308.925C914.767 308.925 920.346 310.937 925.216 314.962C930.085 318.987 933.128 324.019 934.346 330.057L944.998 385L950.171 415.491L952.302 431.189H954.128L956.867 415.491C958.693 404.421 960.722 394.258 962.953 385L974.518 335.189C976.141 327.742 980.098 321.503 986.387 316.472C992.677 311.44 999.778 308.925 1007.69 308.925C1015.6 308.925 1022.7 311.44 1028.99 316.472C1035.28 321.503 1039.24 327.742 1040.86 335.189L1052.43 385C1054.05 391.642 1056.18 402.61 1058.82 417.906L1061.86 436.019H1063.69L1066.12 417.906C1068.15 403.415 1069.88 392.447 1071.3 385L1081.95 329.151C1082.96 323.314 1085.8 318.484 1090.47 314.66C1095.14 310.836 1100.51 308.925 1106.6 308.925C1113.7 308.925 1119.69 311.34 1124.56 316.17C1129.43 321 1131.86 326.937 1131.86 333.981C1131.86 334.182 1131.56 336.094 1130.95 339.717L1105.08 446.283C1102.85 455.541 1097.88 463.189 1090.17 469.226C1082.46 475.264 1073.73 478.283 1063.99 478.283C1053.85 478.283 1044.92 475.264 1037.21 469.226C1029.7 462.987 1024.83 455.038 1022.6 445.377L1013.78 405.83C1012.76 401.604 1011.24 393.252 1009.21 380.774C1008.4 376.547 1007.79 372.321 1007.39 368.094H1005.26L1003.13 380.774C1001.1 392.447 999.575 400.698 998.561 405.528L989.431 445.981C987.199 455.44 982.329 463.189 974.822 469.226C967.315 475.264 958.693 478.283 948.954 478.283ZM1176.52 288.094C1170.03 288.094 1164.45 285.78 1159.78 281.151C1155.12 276.522 1152.78 270.987 1152.78 264.547C1152.78 258.107 1155.12 252.572 1159.78 247.943C1164.45 243.314 1170.03 241 1176.52 241H1190.52C1197.01 241 1202.59 243.314 1207.26 247.943C1211.93 252.572 1214.26 258.107 1214.26 264.547C1214.26 270.987 1211.93 276.522 1207.26 281.151C1202.59 285.78 1197.01 288.094 1190.52 288.094H1176.52ZM1183.52 478.283C1175.81 478.283 1169.12 475.566 1163.43 470.132C1157.96 464.497 1155.22 457.855 1155.22 450.208V337C1155.22 329.352 1157.96 322.811 1163.43 317.377C1169.12 311.742 1175.81 308.925 1183.52 308.925C1191.23 308.925 1197.82 311.742 1203.3 317.377C1208.98 322.811 1211.82 329.352 1211.82 337V450.208C1211.82 457.855 1208.98 464.497 1203.3 470.132C1197.82 475.566 1191.23 478.283 1183.52 478.283ZM1274.91 478.283C1267.2 478.283 1260.51 475.566 1254.83 470.132C1249.35 464.497 1246.61 457.855 1246.61 450.208V334.887C1246.61 327.843 1249.14 321.805 1254.22 316.774C1259.49 311.541 1265.68 308.925 1272.78 308.925C1280.09 308.925 1286.27 311.541 1291.35 316.774C1296.62 321.805 1299.26 327.843 1299.26 334.887V339.113C1303.93 330.057 1310.72 322.61 1319.65 316.774C1328.58 310.937 1339.63 308.019 1352.82 308.019C1373.11 308.019 1387.92 313.755 1397.26 325.226C1406.59 336.497 1411.26 352.094 1411.26 372.019V450.208C1411.26 457.855 1408.41 464.497 1402.73 470.132C1397.26 475.566 1390.66 478.283 1382.95 478.283C1375.24 478.283 1368.55 475.566 1362.87 470.132C1357.39 464.497 1354.65 457.855 1354.65 450.208V380.774C1354.65 369.503 1352.21 361.654 1347.34 357.226C1342.48 352.799 1336.9 350.585 1330.61 350.585C1323.1 350.585 1316.61 353.302 1311.13 358.736C1305.85 363.969 1303.22 373.629 1303.22 387.717V450.208C1303.22 457.855 1300.38 464.497 1294.69 470.132C1289.22 475.566 1282.62 478.283 1274.91 478.283ZM1504.36 481C1486.1 481 1470.58 478.384 1457.8 473.151C1445.22 467.918 1438.93 459.566 1438.93 448.094C1438.93 441.453 1441.16 435.717 1445.62 430.887C1450.09 425.855 1455.87 423.34 1462.97 423.34C1467.03 423.34 1470.48 424.245 1473.32 426.057C1476.16 427.667 1479 430.082 1481.84 433.302C1484.88 437.126 1487.93 439.843 1490.97 441.453C1494.01 443.063 1498.88 443.868 1505.58 443.868C1521.2 443.868 1529.01 439.038 1529.01 429.377C1529.01 426.157 1527.8 423.541 1525.36 421.528C1523.13 419.516 1518.46 417.805 1511.36 416.396L1490.67 412.17C1471.59 408.346 1457.6 402.61 1448.67 394.962C1439.74 387.314 1435.28 376.849 1435.28 363.566C1435.28 346.258 1442.07 332.572 1455.67 322.509C1469.46 312.245 1487.72 307.113 1510.45 307.113C1527.09 307.113 1541.59 309.73 1553.97 314.962C1566.34 320.195 1572.53 328.245 1572.53 339.113C1572.53 346.358 1570.3 352.195 1565.84 356.623C1561.58 360.849 1556.2 362.962 1549.71 362.962C1542.4 362.962 1536.11 359.642 1530.84 353C1528.81 350.182 1526.27 347.969 1523.23 346.358C1520.19 344.748 1515.62 343.943 1509.54 343.943C1503.04 343.943 1497.87 345.05 1494.01 347.264C1490.36 349.478 1488.54 352.698 1488.54 356.925C1488.54 360.346 1489.96 362.962 1492.8 364.774C1495.64 366.585 1500.51 368.195 1507.41 369.604L1531.14 374.434C1549.4 378.258 1562.59 383.994 1570.71 391.642C1579.03 399.289 1583.18 409.855 1583.18 423.34C1583.18 441.05 1576.59 455.138 1563.4 465.604C1550.42 475.868 1530.74 481 1504.36 481ZM1673.13 479.491C1653.65 479.491 1639.86 474.761 1631.74 465.302C1623.63 455.642 1619.67 440.748 1619.87 420.623L1620.18 348.472H1611.66C1606.58 348.472 1602.22 346.66 1598.57 343.038C1594.92 339.415 1593.09 335.088 1593.09 330.057C1593.09 324.824 1594.92 320.396 1598.57 316.774C1602.22 313.151 1606.58 311.34 1611.66 311.34H1622L1623.22 289C1623.63 282.358 1626.26 276.723 1631.13 272.094C1636.21 267.264 1642.19 264.849 1649.09 264.849C1656.19 264.849 1662.28 267.365 1667.35 272.396C1672.42 277.428 1674.96 283.465 1674.96 290.509V311.34H1692.91C1697.99 311.34 1702.35 313.151 1706 316.774C1709.65 320.396 1711.48 324.723 1711.48 329.755C1711.48 334.987 1709.65 339.415 1706 343.038C1702.35 346.66 1697.99 348.472 1692.91 348.472H1676.17V415.792C1676.17 424.044 1677.9 429.881 1681.35 433.302C1685 436.723 1690.48 438.434 1697.78 438.434C1702.45 439.44 1706.41 441.855 1709.65 445.679C1712.9 449.302 1714.52 453.629 1714.52 458.66C1714.52 462.887 1713.3 466.711 1710.87 470.132C1708.64 473.352 1705.7 475.767 1702.04 477.377C1693.93 478.786 1684.29 479.491 1673.13 479.491ZM1816.22 480.396C1797.96 480.396 1782.34 476.673 1769.36 469.226C1756.37 461.78 1746.53 451.516 1739.84 438.434C1733.14 425.352 1729.79 410.56 1729.79 394.057C1729.79 377.151 1733.24 362.157 1740.14 349.075C1747.04 335.994 1757.08 325.73 1770.27 318.283C1783.46 310.836 1799.18 307.113 1817.44 307.113C1835.7 307.113 1851.43 310.836 1864.61 318.283C1877.8 325.73 1887.74 335.994 1894.44 349.075C1901.13 362.157 1904.48 376.95 1904.48 393.453C1904.48 410.157 1900.93 425.151 1893.83 438.434C1886.93 451.516 1876.79 461.78 1863.4 469.226C1850.21 476.673 1834.49 480.396 1816.22 480.396ZM1817.14 440.245C1827.28 440.245 1834.89 436.119 1839.96 427.868C1845.04 419.616 1847.57 408.245 1847.57 393.755C1847.57 379.264 1845.04 367.893 1839.96 359.642C1834.89 351.39 1827.18 347.264 1816.83 347.264C1806.69 347.264 1799.08 351.39 1794.01 359.642C1788.94 367.692 1786.4 378.962 1786.4 393.453C1786.4 408.145 1788.94 419.616 1794.01 427.868C1799.28 436.119 1806.99 440.245 1817.14 440.245ZM2008.66 480.396C1990.4 480.396 1974.77 476.673 1961.79 469.226C1948.8 461.78 1938.96 451.516 1932.27 438.434C1925.57 425.352 1922.23 410.56 1922.23 394.057C1922.23 377.151 1925.67 362.157 1932.57 349.075C1939.47 335.994 1949.51 325.73 1962.7 318.283C1975.89 310.836 1991.61 307.113 2009.87 307.113C2028.13 307.113 2043.86 310.836 2057.05 318.283C2070.23 325.73 2080.18 335.994 2086.87 349.075C2093.57 362.157 2096.91 376.95 2096.91 393.453C2096.91 410.157 2093.36 425.151 2086.26 438.434C2079.36 451.516 2069.22 461.78 2055.83 469.226C2042.64 476.673 2026.92 480.396 2008.66 480.396ZM2009.57 440.245C2019.71 440.245 2027.32 436.119 2032.39 427.868C2037.47 419.616 2040 408.245 2040 393.755C2040 379.264 2037.47 367.893 2032.39 359.642C2027.32 351.39 2019.61 347.264 2009.27 347.264C1999.12 347.264 1991.51 351.39 1986.44 359.642C1981.37 367.692 1978.83 378.962 1978.83 393.453C1978.83 408.145 1981.37 419.616 1986.44 427.868C1991.72 436.119 1999.42 440.245 2009.57 440.245ZM2188.61 479.491C2169.13 479.491 2155.34 474.761 2147.22 465.302C2139.11 455.642 2135.15 440.748 2135.35 420.623L2135.66 348.472H2127.13C2122.06 348.472 2117.7 346.66 2114.05 343.038C2110.4 339.415 2108.57 335.088 2108.57 330.057C2108.57 324.824 2110.4 320.396 2114.05 316.774C2117.7 313.151 2122.06 311.34 2127.13 311.34H2137.48L2138.7 289C2139.1 282.358 2141.74 276.723 2146.61 272.094C2151.68 267.264 2157.67 264.849 2164.57 264.849C2171.67 264.849 2177.76 267.365 2182.83 272.396C2187.9 277.428 2190.44 283.465 2190.44 290.509V311.34H2208.39C2213.46 311.34 2217.83 313.151 2221.48 316.774C2225.13 320.396 2226.96 324.723 2226.96 329.755C2226.96 334.987 2225.13 339.415 2221.48 343.038C2217.83 346.66 2213.46 348.472 2208.39 348.472H2191.65V415.792C2191.65 424.044 2193.38 429.881 2196.83 433.302C2200.48 436.723 2205.96 438.434 2213.26 438.434C2217.93 439.44 2221.88 441.855 2225.13 445.679C2228.38 449.302 2230 453.629 2230 458.66C2230 462.887 2228.78 466.711 2226.35 470.132C2224.12 473.352 2221.17 475.767 2217.52 477.377C2209.41 478.786 2199.77 479.491 2188.61 479.491Z" fill="black"/>
<path d="M888.275 630V547.091H908.314V613.726H942.805V630H888.275ZM982.246 631.174C975.742 631.174 970.128 629.892 965.405 627.328C960.709 624.737 957.093 621.053 954.556 616.276C952.046 611.472 950.791 605.764 950.791 599.152C950.791 592.729 952.059 587.115 954.596 582.311C957.133 577.48 960.709 573.729 965.324 571.057C969.939 568.358 975.377 567.009 981.639 567.009C986.065 567.009 990.113 567.697 993.784 569.073C997.454 570.45 1000.63 572.487 1003.3 575.186C1005.97 577.885 1008.05 581.218 1009.53 585.185C1011.02 589.126 1011.76 593.646 1011.76 598.747V603.686H957.713V592.189H993.338C993.311 590.084 992.812 588.208 991.84 586.562C990.869 584.915 989.533 583.634 987.833 582.716C986.159 581.771 984.23 581.299 982.044 581.299C979.83 581.299 977.847 581.798 976.093 582.797C974.338 583.768 972.948 585.104 971.923 586.805C970.897 588.478 970.357 590.381 970.303 592.513V604.212C970.303 606.749 970.803 608.976 971.801 610.892C972.8 612.781 974.217 614.252 976.052 615.305C977.887 616.357 980.073 616.884 982.61 616.884C984.365 616.884 985.957 616.641 987.387 616.155C988.818 615.669 990.046 614.954 991.071 614.009C992.097 613.065 992.866 611.904 993.379 610.528L1011.56 611.054C1010.8 615.129 1009.14 618.678 1006.58 621.701C1004.04 624.697 1000.71 627.031 996.577 628.705C992.448 630.351 987.671 631.174 982.246 631.174ZM1039.4 631.053C1035.43 631.053 1031.91 630.391 1028.83 629.069C1025.78 627.719 1023.37 625.695 1021.59 622.996C1019.83 620.271 1018.95 616.857 1018.95 612.754C1018.95 609.3 1019.56 606.385 1020.78 604.01C1021.99 601.635 1023.66 599.705 1025.8 598.221C1027.93 596.737 1030.38 595.616 1033.16 594.861C1035.94 594.078 1038.91 593.552 1042.07 593.282C1045.61 592.958 1048.45 592.621 1050.61 592.27C1052.77 591.892 1054.34 591.366 1055.31 590.691C1056.31 589.989 1056.81 589.004 1056.81 587.736V587.533C1056.81 585.455 1056.09 583.849 1054.66 582.716C1053.23 581.582 1051.3 581.016 1048.87 581.016C1046.25 581.016 1044.15 581.582 1042.56 582.716C1040.96 583.849 1039.95 585.415 1039.52 587.412L1021.26 586.764C1021.8 582.986 1023.19 579.612 1025.43 576.643C1027.7 573.648 1030.8 571.3 1034.74 569.599C1038.71 567.872 1043.47 567.009 1049.03 567.009C1053 567.009 1056.66 567.481 1060 568.425C1063.35 569.343 1066.26 570.692 1068.75 572.474C1071.23 574.228 1073.15 576.387 1074.5 578.951C1075.87 581.515 1076.56 584.443 1076.56 587.736V630H1057.94V621.337H1057.45C1056.35 623.442 1054.93 625.223 1053.2 626.68C1051.5 628.138 1049.49 629.231 1047.17 629.96C1044.88 630.688 1042.29 631.053 1039.4 631.053ZM1045.51 618.098C1047.64 618.098 1049.56 617.666 1051.26 616.803C1052.99 615.939 1054.36 614.751 1055.39 613.24C1056.41 611.702 1056.93 609.92 1056.93 607.896V601.986C1056.36 602.283 1055.67 602.553 1054.86 602.795C1054.08 603.038 1053.22 603.268 1052.27 603.484C1051.33 603.7 1050.36 603.888 1049.36 604.05C1048.36 604.212 1047.4 604.361 1046.48 604.496C1044.62 604.793 1043.03 605.251 1041.71 605.872C1040.41 606.493 1039.41 607.303 1038.71 608.301C1038.03 609.273 1037.7 610.433 1037.7 611.783C1037.7 613.834 1038.43 615.399 1039.88 616.479C1041.37 617.558 1043.24 618.098 1045.51 618.098ZM1088.67 630V567.818H1107.89V579.153H1108.54C1109.68 575.051 1111.52 572.001 1114.09 570.004C1116.65 567.98 1119.63 566.968 1123.04 566.968C1123.95 566.968 1124.9 567.036 1125.87 567.17C1126.84 567.278 1127.75 567.454 1128.58 567.697V584.902C1127.64 584.578 1126.4 584.322 1124.86 584.133C1123.35 583.944 1122 583.849 1120.81 583.849C1118.46 583.849 1116.34 584.376 1114.45 585.428C1112.59 586.454 1111.12 587.898 1110.04 589.76C1108.99 591.595 1108.46 593.754 1108.46 596.237V630H1088.67ZM1156.44 594.537V630H1136.65V567.818H1155.47V579.234H1156.16C1157.54 575.429 1159.89 572.447 1163.2 570.288C1166.52 568.102 1170.48 567.009 1175.07 567.009C1179.44 567.009 1183.23 567.994 1186.44 569.964C1189.68 571.907 1192.19 574.633 1193.97 578.141C1195.78 581.623 1196.67 585.698 1196.64 590.367V630H1176.85V594.254C1176.87 590.799 1176 588.1 1174.22 586.157C1172.46 584.214 1170.02 583.242 1166.89 583.242C1164.81 583.242 1162.98 583.701 1161.38 584.619C1159.82 585.509 1158.6 586.791 1157.74 588.464C1156.9 590.138 1156.47 592.162 1156.44 594.537ZM1308.65 577.129H1288.41C1288.14 575.051 1287.59 573.175 1286.75 571.502C1285.91 569.829 1284.81 568.398 1283.43 567.211C1282.05 566.023 1280.42 565.119 1278.53 564.499C1276.67 563.851 1274.6 563.527 1272.34 563.527C1268.32 563.527 1264.85 564.512 1261.93 566.482C1259.04 568.452 1256.82 571.3 1255.25 575.024C1253.71 578.749 1252.95 583.256 1252.95 588.545C1252.95 594.051 1253.73 598.666 1255.29 602.391C1256.89 606.088 1259.11 608.881 1261.97 610.771C1264.86 612.633 1268.27 613.564 1272.22 613.564C1274.43 613.564 1276.44 613.281 1278.25 612.714C1280.08 612.147 1281.69 611.324 1283.06 610.244C1284.47 609.138 1285.62 607.802 1286.51 606.237C1287.42 604.644 1288.06 602.849 1288.41 600.852L1308.65 600.974C1308.3 604.644 1307.23 608.261 1305.45 611.823C1303.7 615.386 1301.28 618.638 1298.21 621.58C1295.13 624.494 1291.38 626.815 1286.95 628.543C1282.55 630.27 1277.5 631.134 1271.81 631.134C1264.31 631.134 1257.59 629.487 1251.65 626.195C1245.74 622.875 1241.07 618.044 1237.64 611.702C1234.22 605.359 1232.5 597.641 1232.5 588.545C1232.5 579.423 1234.24 571.691 1237.72 565.349C1241.21 559.006 1245.91 554.189 1251.85 550.896C1257.79 547.604 1264.44 545.957 1271.81 545.957C1276.83 545.957 1281.47 546.659 1285.74 548.062C1290 549.439 1293.75 551.463 1296.99 554.135C1300.23 556.78 1302.86 560.032 1304.88 563.891C1306.91 567.751 1308.16 572.163 1308.65 577.129ZM1349.14 631.174C1342.61 631.174 1337 629.838 1332.3 627.166C1327.63 624.467 1324.03 620.716 1321.49 615.912C1318.98 611.081 1317.73 605.481 1317.73 599.112C1317.73 592.715 1318.98 587.115 1321.49 582.311C1324.03 577.48 1327.63 573.729 1332.3 571.057C1337 568.358 1342.61 567.009 1349.14 567.009C1355.67 567.009 1361.27 568.358 1365.94 571.057C1370.64 573.729 1374.24 577.48 1376.75 582.311C1379.29 587.115 1380.56 592.715 1380.56 599.112C1380.56 605.481 1379.29 611.081 1376.75 615.912C1374.24 620.716 1370.64 624.467 1365.94 627.166C1361.27 629.838 1355.67 631.174 1349.14 631.174ZM1349.26 616.236C1351.64 616.236 1353.65 615.507 1355.3 614.05C1356.94 612.592 1358.2 610.568 1359.06 607.977C1359.95 605.386 1360.4 602.391 1360.4 598.99C1360.4 595.536 1359.95 592.513 1359.06 589.922C1358.2 587.331 1356.94 585.307 1355.3 583.849C1353.65 582.392 1351.64 581.663 1349.26 581.663C1346.81 581.663 1344.73 582.392 1343.03 583.849C1341.36 585.307 1340.07 587.331 1339.18 589.922C1338.32 592.513 1337.89 595.536 1337.89 598.99C1337.89 602.391 1338.32 605.386 1339.18 607.977C1340.07 610.568 1341.36 612.592 1343.03 614.05C1344.73 615.507 1346.81 616.236 1349.26 616.236ZM1413.41 630.891C1408.82 630.891 1404.65 629.703 1400.9 627.328C1397.15 624.953 1394.15 621.391 1391.91 616.641C1389.67 611.891 1388.55 605.994 1388.55 598.95C1388.55 591.636 1389.71 585.617 1392.03 580.894C1394.36 576.171 1397.39 572.676 1401.14 570.409C1404.92 568.142 1408.98 567.009 1413.33 567.009C1416.59 567.009 1419.39 567.575 1421.71 568.709C1424.03 569.815 1425.95 571.246 1427.46 573C1428.97 574.754 1430.12 576.576 1430.9 578.465H1431.3V547.091H1451.1V630H1431.51V619.92H1430.9C1430.06 621.836 1428.87 623.631 1427.34 625.304C1425.8 626.977 1423.87 628.327 1421.55 629.352C1419.25 630.378 1416.54 630.891 1413.41 630.891ZM1420.29 615.467C1422.69 615.467 1424.74 614.792 1426.45 613.442C1428.15 612.066 1429.45 610.136 1430.37 607.653C1431.29 605.17 1431.75 602.256 1431.75 598.909C1431.75 595.509 1431.29 592.58 1430.37 590.124C1429.48 587.668 1428.17 585.779 1426.45 584.457C1424.74 583.134 1422.69 582.473 1420.29 582.473C1417.84 582.473 1415.76 583.148 1414.06 584.497C1412.36 585.847 1411.06 587.749 1410.17 590.205C1409.31 592.661 1408.88 595.562 1408.88 598.909C1408.88 602.256 1409.32 605.17 1410.21 607.653C1411.1 610.136 1412.38 612.066 1414.06 613.442C1415.76 614.792 1417.84 615.467 1420.29 615.467ZM1463.62 630V567.818H1483.41V630H1463.62ZM1473.54 560.572C1470.76 560.572 1468.37 559.654 1466.37 557.819C1464.37 555.957 1463.38 553.717 1463.38 551.099C1463.38 548.508 1464.37 546.295 1466.37 544.46C1468.37 542.597 1470.76 541.666 1473.54 541.666C1476.34 541.666 1478.73 542.597 1480.7 544.46C1482.7 546.295 1483.7 548.508 1483.7 551.099C1483.7 553.717 1482.7 555.957 1480.7 557.819C1478.73 559.654 1476.34 560.572 1473.54 560.572ZM1515.81 594.537V630H1496.02V567.818H1514.84V579.234H1515.53C1516.9 575.429 1519.25 572.447 1522.57 570.288C1525.89 568.102 1529.85 567.009 1534.43 567.009C1538.81 567.009 1542.6 567.994 1545.81 569.964C1549.05 571.907 1551.56 574.633 1553.34 578.141C1555.15 581.623 1556.04 585.698 1556.01 590.367V630H1536.21V594.254C1536.24 590.799 1535.36 588.1 1533.58 586.157C1531.83 584.214 1529.39 583.242 1526.26 583.242C1524.18 583.242 1522.34 583.701 1520.75 584.619C1519.18 585.509 1517.97 586.791 1517.11 588.464C1516.27 590.138 1515.84 592.162 1515.81 594.537ZM1597.25 654.614C1591.34 654.614 1586.28 653.79 1582.07 652.144C1577.86 650.498 1574.56 648.244 1572.15 645.384C1569.75 642.523 1568.31 639.284 1567.82 635.668L1586.57 634.615C1586.92 635.884 1587.56 636.99 1588.51 637.935C1589.48 638.879 1590.74 639.608 1592.27 640.121C1593.84 640.634 1595.67 640.89 1597.78 640.89C1601.1 640.89 1603.84 640.08 1606 638.461C1608.18 636.869 1609.28 634.075 1609.28 630.081V619.151H1608.59C1607.81 621.067 1606.62 622.781 1605.03 624.292C1603.43 625.803 1601.45 626.991 1599.07 627.854C1596.73 628.718 1594.03 629.15 1590.98 629.15C1586.44 629.15 1582.29 628.097 1578.51 625.992C1574.76 623.86 1571.75 620.567 1569.48 616.114C1567.24 611.634 1566.12 605.872 1566.12 598.828C1566.12 591.568 1567.28 585.59 1569.6 580.894C1571.92 576.171 1574.96 572.676 1578.71 570.409C1582.49 568.142 1586.55 567.009 1590.9 567.009C1594.16 567.009 1596.96 567.575 1599.28 568.709C1601.63 569.815 1603.55 571.246 1605.07 573C1606.58 574.754 1607.72 576.576 1608.51 578.465H1609.07V567.818H1628.79V630.243C1628.79 635.506 1627.47 639.945 1624.82 643.562C1622.18 647.178 1618.48 649.918 1613.73 651.78C1608.98 653.669 1603.49 654.614 1597.25 654.614ZM1597.86 614.738C1600.26 614.738 1602.31 614.104 1604.01 612.835C1605.71 611.567 1607.02 609.745 1607.94 607.37C1608.86 604.995 1609.32 602.148 1609.32 598.828C1609.32 595.455 1608.86 592.553 1607.94 590.124C1607.05 587.668 1605.74 585.779 1604.01 584.457C1602.31 583.134 1600.26 582.473 1597.86 582.473C1595.4 582.473 1593.33 583.148 1591.63 584.497C1589.93 585.847 1588.63 587.749 1587.74 590.205C1586.88 592.634 1586.44 595.509 1586.44 598.828C1586.44 602.148 1586.89 604.995 1587.78 607.37C1588.67 609.745 1589.95 611.567 1591.63 612.835C1593.33 614.104 1595.4 614.738 1597.86 614.738ZM1665.9 630V547.091H1700.47C1706.68 547.091 1711.88 547.968 1716.06 549.722C1720.27 551.477 1723.43 553.933 1725.53 557.09C1727.67 560.248 1728.73 563.905 1728.73 568.061C1728.73 571.219 1728.07 574.039 1726.75 576.522C1725.43 578.978 1723.6 581.016 1721.28 582.635C1718.96 584.254 1716.28 585.388 1713.23 586.036V586.845C1716.57 587.007 1719.66 587.911 1722.5 589.558C1725.36 591.204 1727.65 593.498 1729.38 596.44C1731.11 599.354 1731.97 602.809 1731.97 606.803C1731.97 611.256 1730.84 615.237 1728.57 618.746C1726.3 622.227 1723.02 624.98 1718.73 627.004C1714.44 629.001 1709.23 630 1703.11 630H1665.9ZM1685.94 613.847H1698.33C1702.67 613.847 1705.87 613.024 1707.92 611.378C1710 609.732 1711.04 607.438 1711.04 604.496C1711.04 602.364 1710.54 600.528 1709.54 598.99C1708.54 597.425 1707.13 596.224 1705.29 595.387C1703.46 594.523 1701.26 594.092 1698.69 594.092H1685.94V613.847ZM1685.94 581.178H1697.03C1699.22 581.178 1701.16 580.813 1702.86 580.085C1704.56 579.356 1705.89 578.303 1706.83 576.927C1707.8 575.55 1708.29 573.891 1708.29 571.947C1708.29 569.168 1707.3 566.982 1705.33 565.389C1703.36 563.797 1700.7 563.001 1697.36 563.001H1685.94V581.178ZM1753.71 653.318C1751.33 653.318 1749.09 653.129 1746.99 652.751C1744.88 652.401 1743.08 651.928 1741.56 651.335L1745.94 636.963C1747.88 637.611 1749.63 637.989 1751.2 638.097C1752.79 638.205 1754.15 637.948 1755.29 637.327C1756.45 636.734 1757.34 635.668 1757.96 634.129L1758.73 632.267L1736.63 567.818H1757.35L1768.81 612.188H1769.46L1781.08 567.818H1801.92L1778.48 635.951C1777.35 639.352 1775.75 642.347 1773.67 644.938C1771.62 647.556 1768.96 649.607 1765.69 651.092C1762.45 652.576 1758.46 653.318 1753.71 653.318ZM1909.27 577.129H1889.02C1888.75 575.051 1888.2 573.175 1887.36 571.502C1886.53 569.829 1885.42 568.398 1884.04 567.211C1882.67 566.023 1881.03 565.119 1879.15 564.499C1877.28 563.851 1875.22 563.527 1872.95 563.527C1868.93 563.527 1865.46 564.512 1862.55 566.482C1859.66 568.452 1857.43 571.3 1855.87 575.024C1854.33 578.749 1853.56 583.256 1853.56 588.545C1853.56 594.051 1854.34 598.666 1855.91 602.391C1857.5 606.088 1859.73 608.881 1862.59 610.771C1865.48 612.633 1868.89 613.564 1872.83 613.564C1875.04 613.564 1877.05 613.281 1878.86 612.714C1880.7 612.147 1882.3 611.324 1883.68 610.244C1885.08 609.138 1886.23 607.802 1887.12 606.237C1888.04 604.644 1888.67 602.849 1889.02 600.852L1909.27 600.974C1908.91 604.644 1907.85 608.261 1906.07 611.823C1904.31 615.386 1901.9 618.638 1898.82 621.58C1895.74 624.494 1891.99 626.815 1887.57 628.543C1883.17 630.27 1878.12 631.134 1872.43 631.134C1864.92 631.134 1858.2 629.487 1852.27 626.195C1846.35 622.875 1841.69 618.044 1838.26 611.702C1834.83 605.359 1833.12 597.641 1833.12 588.545C1833.12 579.423 1834.86 571.691 1838.34 565.349C1841.82 559.006 1846.53 554.189 1852.47 550.896C1858.41 547.604 1865.06 545.957 1872.43 545.957C1877.45 545.957 1882.09 546.659 1886.35 548.062C1890.62 549.439 1894.37 551.463 1897.61 554.135C1900.84 556.78 1903.48 560.032 1905.5 563.891C1907.52 567.751 1908.78 572.163 1909.27 577.129ZM1949.76 631.174C1943.23 631.174 1937.61 629.838 1932.92 627.166C1928.25 624.467 1924.65 620.716 1922.11 615.912C1919.6 611.081 1918.34 605.481 1918.34 599.112C1918.34 592.715 1919.6 587.115 1922.11 582.311C1924.65 577.48 1928.25 573.729 1932.92 571.057C1937.61 568.358 1943.23 567.009 1949.76 567.009C1956.29 567.009 1961.89 568.358 1966.56 571.057C1971.25 573.729 1974.86 577.48 1977.37 582.311C1979.9 587.115 1981.17 592.715 1981.17 599.112C1981.17 605.481 1979.9 611.081 1977.37 615.912C1974.86 620.716 1971.25 624.467 1966.56 627.166C1961.89 629.838 1956.29 631.174 1949.76 631.174ZM1949.88 616.236C1952.25 616.236 1954.27 615.507 1955.91 614.05C1957.56 612.592 1958.81 610.568 1959.68 607.977C1960.57 605.386 1961.01 602.391 1961.01 598.99C1961.01 595.536 1960.57 592.513 1959.68 589.922C1958.81 587.331 1957.56 585.307 1955.91 583.849C1954.27 582.392 1952.25 581.663 1949.88 581.663C1947.42 581.663 1945.35 582.392 1943.65 583.849C1941.97 585.307 1940.69 587.331 1939.8 589.922C1938.94 592.513 1938.5 595.536 1938.5 598.99C1938.5 602.391 1938.94 605.386 1939.8 607.977C1940.69 610.568 1941.97 612.592 1943.65 614.05C1945.35 615.507 1947.42 616.236 1949.88 616.236ZM2014.02 630.891C2009.44 630.891 2005.27 629.703 2001.52 627.328C1997.76 624.953 1994.77 621.391 1992.53 616.641C1990.29 611.891 1989.17 605.994 1989.17 598.95C1989.17 591.636 1990.33 585.617 1992.65 580.894C1994.97 576.171 1998.01 572.676 2001.76 570.409C2005.54 568.142 2009.6 567.009 2013.94 567.009C2017.21 567.009 2020 567.575 2022.32 568.709C2024.64 569.815 2026.56 571.246 2028.07 573C2029.58 574.754 2030.73 576.576 2031.51 578.465H2031.92V547.091H2051.71V630H2032.12V619.92H2031.51C2030.68 621.836 2029.49 623.631 2027.95 625.304C2026.41 626.977 2024.48 628.327 2022.16 629.352C2019.87 630.378 2017.16 630.891 2014.02 630.891ZM2020.91 615.467C2023.31 615.467 2025.36 614.792 2027.06 613.442C2028.76 612.066 2030.07 610.136 2030.99 607.653C2031.9 605.17 2032.36 602.256 2032.36 598.909C2032.36 595.509 2031.9 592.58 2030.99 590.124C2030.1 587.668 2028.79 585.779 2027.06 584.457C2025.36 583.134 2023.31 582.473 2020.91 582.473C2018.45 582.473 2016.37 583.148 2014.67 584.497C2012.97 585.847 2011.68 587.749 2010.79 590.205C2009.92 592.661 2009.49 595.562 2009.49 598.909C2009.49 602.256 2009.94 605.17 2010.83 607.653C2011.72 610.136 2013 612.066 2014.67 613.442C2016.37 614.792 2018.45 615.467 2020.91 615.467ZM2064.23 630V567.818H2084.03V630H2064.23ZM2074.15 560.572C2071.37 560.572 2068.98 559.654 2066.99 557.819C2064.99 555.957 2063.99 553.717 2063.99 551.099C2063.99 548.508 2064.99 546.295 2066.99 544.46C2068.98 542.597 2071.37 541.666 2074.15 541.666C2076.96 541.666 2079.35 542.597 2081.32 544.46C2083.31 546.295 2084.31 548.508 2084.31 551.099C2084.31 553.717 2083.31 555.957 2081.32 557.819C2079.35 559.654 2076.96 560.572 2074.15 560.572ZM2116.43 594.537V630H2096.63V567.818H2115.45V579.234H2116.14C2117.52 575.429 2119.87 572.447 2123.19 570.288C2126.51 568.102 2130.46 567.009 2135.05 567.009C2139.42 567.009 2143.21 567.994 2146.42 569.964C2149.66 571.907 2152.17 574.633 2153.95 578.141C2155.76 581.623 2156.65 585.698 2156.63 590.367V630H2136.83V594.254C2136.86 590.799 2135.98 588.1 2134.2 586.157C2132.44 584.214 2130 583.242 2126.87 583.242C2124.79 583.242 2122.96 583.701 2121.37 584.619C2119.8 585.509 2118.59 586.791 2117.72 588.464C2116.89 590.138 2116.45 592.162 2116.43 594.537ZM2197.87 654.614C2191.96 654.614 2186.9 653.79 2182.69 652.144C2178.48 650.498 2175.17 648.244 2172.77 645.384C2170.37 642.523 2168.92 639.284 2168.44 635.668L2187.18 634.615C2187.53 635.884 2188.18 636.99 2189.12 637.935C2190.1 638.879 2191.35 639.608 2192.89 640.121C2194.45 640.634 2196.29 640.89 2198.39 640.89C2201.71 640.89 2204.45 640.08 2206.61 638.461C2208.8 636.869 2209.89 634.075 2209.89 630.081V619.151H2209.2C2208.42 621.067 2207.23 622.781 2205.64 624.292C2204.05 625.803 2202.06 626.991 2199.69 627.854C2197.34 628.718 2194.64 629.15 2191.59 629.15C2187.06 629.15 2182.9 628.097 2179.12 625.992C2175.37 623.86 2172.36 620.567 2170.1 616.114C2167.86 611.634 2166.74 605.872 2166.74 598.828C2166.74 591.568 2167.9 585.59 2170.22 580.894C2172.54 576.171 2175.58 572.676 2179.33 570.409C2183.11 568.142 2187.17 567.009 2191.51 567.009C2194.78 567.009 2197.57 567.575 2199.89 568.709C2202.24 569.815 2204.17 571.246 2205.68 573C2207.19 574.754 2208.34 576.576 2209.12 578.465H2209.69V567.818H2229.4V630.243C2229.4 635.506 2228.08 639.945 2225.44 643.562C2222.79 647.178 2219.09 649.918 2214.34 651.78C2209.59 653.669 2204.1 654.614 2197.87 654.614ZM2198.48 614.738C2200.88 614.738 2202.93 614.104 2204.63 612.835C2206.33 611.567 2207.64 609.745 2208.56 607.37C2209.47 604.995 2209.93 602.148 2209.93 598.828C2209.93 595.455 2209.47 592.553 2208.56 590.124C2207.66 587.668 2206.36 585.779 2204.63 584.457C2202.93 583.134 2200.88 582.473 2198.48 582.473C2196.02 582.473 2193.94 583.148 2192.24 584.497C2190.54 585.847 2189.25 587.749 2188.35 590.205C2187.49 592.634 2187.06 595.509 2187.06 598.828C2187.06 602.148 2187.5 604.995 2188.4 607.37C2189.29 609.745 2190.57 611.567 2192.24 612.835C2193.94 614.104 2196.02 614.738 2198.48 614.738Z" fill="black"/>
</svg>
