<svg width="353" height="84" viewBox="0 0 353 84" fill="none" xmlns="http://www.w3.org/2000/svg">
<rect x="37.9092" y="0.202271" width="10.6924" height="27.2171" rx="5.34622" fill="#FF992F"/>
<rect x="37.9092" y="38.1119" width="10.6924" height="45.6859" rx="5.34622" fill="black"/>
<rect x="69.792" y="8.95056" width="10.6924" height="27.2171" rx="5.34622" transform="rotate(45 69.792 8.95056)" fill="#EB444E"/>
<rect x="43.5469" y="35.1958" width="10.6924" height="36.3226" rx="5.34622" transform="rotate(45 43.5469 35.1958)" fill="black"/>
<rect width="10.6924" height="36.3226" rx="5.34622" transform="matrix(-0.707107 0.707107 0.707107 0.707107 43.5264 35.1958)" fill="black"/>
<rect width="10.6924" height="27.2171" rx="5.34622" transform="matrix(-0.707107 0.707107 0.707107 0.707107 16.3096 8.95056)" fill="#29B874"/>
<rect width="10.6924" height="27.2171" rx="5.34622" transform="matrix(-4.37114e-08 1 1 4.37114e-08 0 38.1119)" fill="#4468FC"/>
<rect width="10.6924" height="27.2171" rx="5.34622" transform="matrix(-4.37114e-08 1 1 4.37114e-08 59.2949 38.1119)" fill="#20A7E3"/>
<path d="M117.367 58.3919C115.799 58.3919 114.411 57.9182 113.202 56.9709C111.993 55.9909 111.209 54.7495 110.85 53.2469L106.734 36.1459C106.636 35.5579 106.587 35.2312 106.587 35.1659C106.587 33.9899 106.995 32.9935 107.812 32.1769C108.661 31.3275 109.674 30.9029 110.85 30.9029C111.863 30.9029 112.761 31.2295 113.545 31.8829C114.329 32.5362 114.819 33.3529 115.015 34.3329L116.73 43.2509L117.563 48.1999L117.906 50.7479H118.2L118.641 48.1999C118.935 46.4032 119.262 44.7535 119.621 43.2509L121.483 35.1659C121.744 33.9572 122.381 32.9445 123.394 32.1279C124.407 31.3112 125.55 30.9029 126.824 30.9029C128.098 30.9029 129.241 31.3112 130.254 32.1279C131.267 32.9445 131.904 33.9572 132.165 35.1659L134.027 43.2509C134.288 44.3289 134.631 46.1092 135.056 48.5919L135.546 51.5319H135.84L136.232 48.5919C136.559 46.2399 136.836 44.4595 137.065 43.2509L138.78 34.1859C138.943 33.2385 139.401 32.4545 140.152 31.8339C140.903 31.2132 141.769 30.9029 142.749 30.9029C143.892 30.9029 144.856 31.2949 145.64 32.0789C146.424 32.8629 146.816 33.8265 146.816 34.9699C146.816 35.0025 146.767 35.3129 146.669 35.9009L142.504 53.1979C142.145 54.7005 141.344 55.9419 140.103 56.9219C138.862 57.9019 137.457 58.3919 135.889 58.3919C134.256 58.3919 132.818 57.9019 131.577 56.9219C130.368 55.9092 129.584 54.6189 129.225 53.0509L127.804 46.6319C127.641 45.9459 127.396 44.5902 127.069 42.5649C126.938 41.8789 126.84 41.1929 126.775 40.5069H126.432L126.089 42.5649C125.762 44.4595 125.517 45.7989 125.354 46.5829L123.884 53.1489C123.525 54.6842 122.741 55.9419 121.532 56.9219C120.323 57.9019 118.935 58.3919 117.367 58.3919ZM153.027 27.5219C151.981 27.5219 151.083 27.1462 150.332 26.3949C149.58 25.6435 149.205 24.7452 149.205 23.6999C149.205 22.6545 149.58 21.7562 150.332 21.0049C151.083 20.2535 151.981 19.8779 153.027 19.8779H155.281C156.326 19.8779 157.224 20.2535 157.976 21.0049C158.727 21.7562 159.103 22.6545 159.103 23.6999C159.103 24.7452 158.727 25.6435 157.976 26.3949C157.224 27.1462 156.326 27.5219 155.281 27.5219H153.027ZM154.154 58.3919C152.912 58.3919 151.834 57.9509 150.92 57.0689C150.038 56.1542 149.597 55.0762 149.597 53.8349V35.4599C149.597 34.2185 150.038 33.1569 150.92 32.2749C151.834 31.3602 152.912 30.9029 154.154 30.9029C155.395 30.9029 156.457 31.3602 157.339 32.2749C158.253 33.1569 158.711 34.2185 158.711 35.4599V53.8349C158.711 55.0762 158.253 56.1542 157.339 57.0689C156.457 57.9509 155.395 58.3919 154.154 58.3919ZM167.888 58.3919C166.647 58.3919 165.569 57.9509 164.654 57.0689C163.772 56.1542 163.331 55.0762 163.331 53.8349V35.1169C163.331 33.9735 163.74 32.9935 164.556 32.1769C165.406 31.3275 166.402 30.9029 167.545 30.9029C168.721 30.9029 169.718 31.3275 170.534 32.1769C171.384 32.9935 171.808 33.9735 171.808 35.1169V35.8029C172.56 34.3329 173.654 33.1242 175.091 32.1769C176.529 31.2295 178.309 30.7559 180.432 30.7559C183.699 30.7559 186.084 31.6869 187.586 33.5489C189.089 35.3782 189.84 37.9099 189.84 41.1439V53.8349C189.84 55.0762 189.383 56.1542 188.468 57.0689C187.586 57.9509 186.525 58.3919 185.283 58.3919C184.042 58.3919 182.964 57.9509 182.049 57.0689C181.167 56.1542 180.726 55.0762 180.726 53.8349V42.5649C180.726 40.7355 180.334 39.4615 179.55 38.7429C178.766 38.0242 177.868 37.6649 176.855 37.6649C175.647 37.6649 174.601 38.1059 173.719 38.9879C172.87 39.8372 172.445 41.4052 172.445 43.6919V53.8349C172.445 55.0762 171.988 56.1542 171.073 57.0689C170.191 57.9509 169.13 58.3919 167.888 58.3919ZM203.851 58.8329C200.911 58.8329 198.412 58.4082 196.354 57.5589C194.329 56.7095 193.316 55.3539 193.316 53.4919C193.316 52.4139 193.675 51.4829 194.394 50.6989C195.113 49.8822 196.044 49.4739 197.187 49.4739C197.84 49.4739 198.396 49.6209 198.853 49.9149C199.31 50.1762 199.768 50.5682 200.225 51.0909C200.715 51.7115 201.205 52.1525 201.695 52.4139C202.185 52.6752 202.969 52.8059 204.047 52.8059C206.562 52.8059 207.82 52.0219 207.82 50.4539C207.82 49.9312 207.624 49.5065 207.232 49.1799C206.873 48.8532 206.121 48.5755 204.978 48.3469L201.646 47.6609C198.575 47.0402 196.321 46.1092 194.884 44.8679C193.447 43.6265 192.728 41.9279 192.728 39.7719C192.728 36.9625 193.822 34.7412 196.011 33.1079C198.232 31.4419 201.172 30.6089 204.831 30.6089C207.51 30.6089 209.845 31.0335 211.838 31.8829C213.831 32.7322 214.827 34.0389 214.827 35.8029C214.827 36.9789 214.468 37.9262 213.749 38.6449C213.063 39.3309 212.197 39.6739 211.152 39.6739C209.976 39.6739 208.963 39.1349 208.114 38.0569C207.787 37.5995 207.379 37.2402 206.889 36.9789C206.399 36.7175 205.664 36.5869 204.684 36.5869C203.639 36.5869 202.806 36.7665 202.185 37.1259C201.597 37.4852 201.303 38.0079 201.303 38.6939C201.303 39.2492 201.532 39.6739 201.989 39.9679C202.446 40.2619 203.23 40.5232 204.341 40.7519L208.163 41.5359C211.103 42.1565 213.226 43.0875 214.533 44.3289C215.872 45.5702 216.542 47.2852 216.542 49.4739C216.542 52.3485 215.48 54.6352 213.357 56.3339C211.266 57.9999 208.098 58.8329 203.851 58.8329ZM230.044 58.5879C226.908 58.5879 224.687 57.8202 223.38 56.2849C222.073 54.7169 221.436 52.2995 221.469 49.0329L221.518 37.3219H220.146C219.329 37.3219 218.627 37.0279 218.039 36.4399C217.451 35.8519 217.157 35.1495 217.157 34.3329C217.157 33.4835 217.451 32.7649 218.039 32.1769C218.627 31.5889 219.329 31.2949 220.146 31.2949H221.812L222.008 27.6689C222.073 26.5909 222.498 25.6762 223.282 24.9249C224.099 24.1409 225.062 23.7489 226.173 23.7489C227.316 23.7489 228.296 24.1572 229.113 24.9739C229.93 25.7905 230.338 26.7705 230.338 27.9139V31.2949H233.229C234.046 31.2949 234.748 31.5889 235.336 32.1769C235.924 32.7649 236.218 33.4672 236.218 34.2839C236.218 35.1332 235.924 35.8519 235.336 36.4399C234.748 37.0279 234.046 37.3219 233.229 37.3219H230.534V48.2489C230.534 49.5882 230.812 50.5355 231.367 51.0909C231.955 51.6462 232.837 51.9239 234.013 51.9239C234.764 52.0872 235.401 52.4792 235.924 53.0999C236.447 53.6879 236.708 54.3902 236.708 55.2069C236.708 55.8929 236.512 56.5135 236.12 57.0689C235.761 57.5915 235.287 57.9835 234.699 58.2449C233.392 58.4735 231.841 58.5879 230.044 58.5879ZM252.103 58.7349C249.163 58.7349 246.648 58.1305 244.557 56.9219C242.466 55.7132 240.882 54.0472 239.804 51.9239C238.726 49.8005 238.187 47.3995 238.187 44.7209C238.187 41.9769 238.742 39.5432 239.853 37.4199C240.964 35.2965 242.581 33.6305 244.704 32.4219C246.827 31.2132 249.359 30.6089 252.299 30.6089C255.239 30.6089 257.771 31.2132 259.894 32.4219C262.017 33.6305 263.618 35.2965 264.696 37.4199C265.774 39.5432 266.313 41.9442 266.313 44.6229C266.313 47.3342 265.741 49.7679 264.598 51.9239C263.487 54.0472 261.854 55.7132 259.698 56.9219C257.575 58.1305 255.043 58.7349 252.103 58.7349ZM252.25 52.2179C253.883 52.2179 255.108 51.5482 255.925 50.2089C256.742 48.8695 257.15 47.0239 257.15 44.6719C257.15 42.3199 256.742 40.4742 255.925 39.1349C255.108 37.7955 253.867 37.1259 252.201 37.1259C250.568 37.1259 249.343 37.7955 248.526 39.1349C247.709 40.4415 247.301 42.2709 247.301 44.6229C247.301 47.0075 247.709 48.8695 248.526 50.2089C249.375 51.5482 250.617 52.2179 252.25 52.2179ZM282.106 58.7349C279.166 58.7349 276.65 58.1305 274.56 56.9219C272.469 55.7132 270.885 54.0472 269.807 51.9239C268.729 49.8005 268.19 47.3995 268.19 44.7209C268.19 41.9769 268.745 39.5432 269.856 37.4199C270.966 35.2965 272.583 33.6305 274.707 32.4219C276.83 31.2132 279.362 30.6089 282.302 30.6089C285.242 30.6089 287.773 31.2132 289.897 32.4219C292.02 33.6305 293.621 35.2965 294.699 37.4199C295.777 39.5432 296.316 41.9442 296.316 44.6229C296.316 47.3342 295.744 49.7679 294.601 51.9239C293.49 54.0472 291.857 55.7132 289.701 56.9219C287.577 58.1305 285.046 58.7349 282.106 58.7349ZM282.253 52.2179C283.886 52.2179 285.111 51.5482 285.928 50.2089C286.744 48.8695 287.153 47.0239 287.153 44.6719C287.153 42.3199 286.744 40.4742 285.928 39.1349C285.111 37.7955 283.87 37.1259 282.204 37.1259C280.57 37.1259 279.345 37.7955 278.529 39.1349C277.712 40.4415 277.304 42.2709 277.304 44.6229C277.304 47.0075 277.712 48.8695 278.529 50.2089C279.378 51.5482 280.619 52.2179 282.253 52.2179ZM310.1 58.5879C306.964 58.5879 304.742 57.8202 303.436 56.2849C302.129 54.7169 301.492 52.2995 301.525 49.0329L301.574 37.3219H300.202C299.385 37.3219 298.683 37.0279 298.095 36.4399C297.507 35.8519 297.213 35.1495 297.213 34.3329C297.213 33.4835 297.507 32.7649 298.095 32.1769C298.683 31.5889 299.385 31.2949 300.202 31.2949H301.868L302.064 27.6689C302.129 26.5909 302.554 25.6762 303.338 24.9249C304.154 24.1409 305.118 23.7489 306.229 23.7489C307.372 23.7489 308.352 24.1572 309.169 24.9739C309.985 25.7905 310.394 26.7705 310.394 27.9139V31.2949H313.285C314.101 31.2949 314.804 31.5889 315.392 32.1769C315.98 32.7649 316.274 33.4672 316.274 34.2839C316.274 35.1332 315.98 35.8519 315.392 36.4399C314.804 37.0279 314.101 37.3219 313.285 37.3219H310.59V48.2489C310.59 49.5882 310.867 50.5355 311.423 51.0909C312.011 51.6462 312.893 51.9239 314.069 51.9239C314.82 52.0872 315.457 52.4792 315.98 53.0999C316.502 53.6879 316.764 54.3902 316.764 55.2069C316.764 55.8929 316.568 56.5135 316.176 57.0689C315.816 57.5915 315.343 57.9835 314.755 58.2449C313.448 58.4735 311.896 58.5879 310.1 58.5879Z" fill="black"/>
</svg>
